<svg role="img" viewBox="0 0 24 24" xmlns="http://www.w3.org/2000/svg"><title>Bloomberg</title><path d="M0 4.31h4.387c1.293 0 2.269.322 2.928.966.527.515.79 1.164.79 1.948v.034c0 1.378-.746 2.242-1.83 2.674 1.46.449 2.354 1.33 2.354 2.85v.034c0 2.012-1.629 3.189-4.099 3.189H0zm4.953 4.882c0-.79-.61-1.234-1.697-1.234H2.43v2.52h.71c1.155 0 1.814-.39 1.814-1.252zm-.39 4.204c0-.804-.61-1.286-1.882-1.286H2.43v2.604h.303c1.272 0 1.83-.534 1.83-1.284zM9.234 4.31h2.43v11.695h-2.43zm4.336 5.865v-.034c0-3.342 2.623-6.08 6.216-6.08 3.593 0 6.182 2.706 6.182 6.046v.034c0 3.341-2.623 6.08-6.216 6.08-3.593 0-6.182-2.706-6.182-6.046zm9.916 0v-.034c0-2.097-1.528-3.826-3.734-3.826s-3.7 1.695-3.7 3.792v.034c0 2.096 1.527 3.825 3.734 3.825s3.7-1.695 3.7-3.791z"/></svg>